<svg width="24" height="24" viewBox="0 0 24 24" fill="none" xmlns="http://www.w3.org/2000/svg">
<path d="M8.143 6.307C8.577 6.075 9.044 6.001 9.499 6.001C10.025 6.001 10.637 6.174 11.13 6.578C11.648 7.002 11.999 7.652 11.999 8.5C11.999 9.475 11.31 10.004 10.922 10.302L10.837 10.368C10.413 10.701 10.249 10.879 10.249 11.25C10.249 11.4489 10.17 11.6397 10.0293 11.7803C9.88867 11.921 9.69791 12 9.499 12C9.30008 12 9.10932 11.921 8.96867 11.7803C8.82801 11.6397 8.749 11.4489 8.749 11.25C8.749 10.116 9.46 9.542 9.911 9.188C10.424 8.785 10.499 8.695 10.499 8.5C10.499 8.103 10.35 7.878 10.179 7.739C9.98587 7.58544 9.74673 7.50126 9.5 7.5C9.205 7.5 9.002 7.549 8.85 7.63C8.707 7.706 8.556 7.84 8.41 8.11C8.31518 8.28504 8.15471 8.41525 7.9639 8.47198C7.77308 8.52871 7.56754 8.50732 7.3925 8.4125C7.21745 8.31769 7.08724 8.15722 7.03052 7.9664C6.97379 7.77558 6.99518 7.57004 7.09 7.395C7.354 6.909 7.702 6.542 8.144 6.306M9.499 15C9.76421 15 10.0186 14.8946 10.2061 14.7071C10.3936 14.5196 10.499 14.2652 10.499 14C10.499 13.7348 10.3936 13.4804 10.2061 13.2929C10.0186 13.1054 9.76421 13 9.499 13C9.23378 13 8.97943 13.1054 8.79189 13.2929C8.60435 13.4804 8.499 13.7348 8.499 14C8.499 14.2652 8.60435 14.5196 8.79189 14.7071C8.97943 14.8946 9.23378 15 9.499 15ZM9.499 3C8.2375 2.99979 6.99633 3.31778 5.89034 3.92454C4.78434 4.5313 3.84927 5.40724 3.17164 6.47129C2.49401 7.53533 2.09572 8.75311 2.01363 10.0119C1.93154 11.2708 2.1683 12.53 2.702 13.673L1.977 16.515C1.92378 16.7238 1.92543 16.9427 1.98177 17.1507C2.03811 17.3586 2.14723 17.5484 2.29856 17.7018C2.44989 17.8551 2.63827 17.9667 2.84545 18.0258C3.05262 18.0849 3.27155 18.0895 3.481 18.039C4.231 17.859 5.384 17.582 6.412 17.337C7.43171 17.7968 8.54138 18.0227 9.65971 17.9982C10.778 17.9736 11.8767 17.6992 12.8753 17.1951C13.8738 16.691 14.747 15.9698 15.4307 15.0845C16.1145 14.1993 16.5916 13.1722 16.827 12.0787C17.0625 10.9852 17.0504 9.8528 16.7915 8.76455C16.5327 7.67631 16.0337 6.65974 15.3311 5.78932C14.6285 4.91889 13.7402 4.21664 12.731 3.73401C11.7219 3.25138 10.6176 3.00058 9.499 3ZM3.499 10.5C3.49939 9.1953 3.92505 7.92628 4.71148 6.88523C5.4979 5.84419 6.60224 5.08785 7.85714 4.73083C9.11204 4.37381 10.4491 4.43556 11.6658 4.90672C12.8824 5.37789 13.9123 6.23279 14.5995 7.34189C15.2866 8.45099 15.5935 9.75384 15.4736 11.053C15.3538 12.3522 14.8137 13.5769 13.9352 14.5416C13.0568 15.5062 11.8878 16.1583 10.6055 16.3989C9.3232 16.6395 7.9974 16.4556 6.829 15.875L6.586 15.754L6.321 15.817L3.533 16.484C3.733 15.704 3.995 14.672 4.223 13.776L4.293 13.5L4.163 13.247C3.72644 12.3972 3.49814 11.4554 3.499 10.5ZM14.5 21C12.6083 21.0022 10.7859 20.2876 9.4 19H9.5C10.218 19 10.915 18.911 11.581 18.743C12.445 19.225 13.441 19.5 14.501 19.5C15.461 19.5 16.367 19.275 17.171 18.875L17.413 18.754L17.678 18.817C18.6 19.037 19.643 19.262 20.418 19.427C20.2116 18.5415 19.9976 17.6578 19.776 16.776L19.706 16.5L19.836 16.247C20.2729 15.3973 20.5005 14.4555 20.5 13.5C20.5001 12.4969 20.2487 11.5099 19.7688 10.6291C19.2889 9.74827 18.5958 9.00182 17.753 8.458C17.5771 7.74358 17.3082 7.05535 16.953 6.411C17.9457 6.75475 18.8552 7.30315 19.6226 8.02069C20.3899 8.73823 20.998 9.60892 21.4075 10.5764C21.817 11.5439 22.0188 12.5865 21.9997 13.6369C21.9807 14.6873 21.7413 15.722 21.297 16.674C21.55 17.682 21.807 18.774 21.969 19.477C22.0166 19.6808 22.0119 19.8932 21.9556 20.0947C21.8992 20.2963 21.793 20.4803 21.6466 20.6299C21.5003 20.7794 21.3186 20.8896 21.1183 20.9503C20.9181 21.011 20.7057 21.0202 20.501 20.977C19.5276 20.7746 18.5566 20.5612 17.588 20.337C16.6174 20.7747 15.5647 21.0007 14.5 21Z" fill="black"/>
</svg>
