<svg width="24" height="24" viewBox="0 0 24 24" fill="none" xmlns="http://www.w3.org/2000/svg">
<path d="M7.74858 16.2857L16.32 7.71429M0.857147 18.8571C0.857146 19.3112 1.03729 19.7467 1.35804 20.0681C1.67879 20.3895 2.11394 20.5705 2.568 20.5714H21.432C21.8861 20.5705 22.3212 20.3895 22.642 20.0681C22.9627 19.7467 23.1429 19.3112 23.1429 18.8571V15.3703C22.4027 15.1696 21.7492 14.7308 21.2832 14.1216C20.8172 13.5125 20.5648 12.7669 20.5648 12C20.5648 11.2331 20.8172 10.4875 21.2832 9.87837C21.7492 9.26923 22.4027 8.83043 23.1429 8.62972V5.14286C23.1429 4.6888 22.9627 4.25328 22.642 3.93189C22.3212 3.61049 21.8861 3.42948 21.432 3.42857H2.568C2.11394 3.42948 1.67879 3.61049 1.35804 3.93189C1.03729 4.25328 0.857146 4.6888 0.857147 5.14286V8.62286C1.60324 8.81909 2.26334 9.25687 2.73439 9.86783C3.20544 10.4788 3.46091 11.2285 3.46091 12C3.46091 12.7715 3.20544 13.5212 2.73439 14.1322C2.26334 14.7431 1.60324 15.1809 0.857147 15.3771V18.8571Z" stroke="black" stroke-width="1.71429" stroke-linecap="round" stroke-linejoin="round"/>
<path d="M8.60571 9.42858C8.83304 9.42858 9.05105 9.33827 9.2118 9.17753C9.37255 9.01678 9.46285 8.79877 9.46285 8.57144C9.46285 8.34411 9.37255 8.12609 9.2118 7.96535C9.05105 7.8046 8.83304 7.71429 8.60571 7.71429C8.37838 7.71429 8.16036 7.8046 7.99962 7.96535C7.83887 8.12609 7.74857 8.34411 7.74857 8.57144C7.74857 8.79877 7.83887 9.01678 7.99962 9.17753C8.16036 9.33827 8.37838 9.42858 8.60571 9.42858ZM15.4629 16.2857C15.6902 16.2857 15.9082 16.1954 16.0689 16.0347C16.2297 15.8739 16.32 15.6559 16.32 15.4286C16.32 15.2013 16.2297 14.9832 16.0689 14.8225C15.9082 14.6617 15.6902 14.5714 15.4629 14.5714C15.2355 14.5714 15.0175 14.6617 14.8568 14.8225C14.696 14.9832 14.6057 15.2013 14.6057 15.4286C14.6057 15.6559 14.696 15.8739 14.8568 16.0347C15.0175 16.1954 15.2355 16.2857 15.4629 16.2857Z" stroke="black" stroke-width="1.71429" stroke-linecap="round" stroke-linejoin="round"/>
</svg>
