<svg width="24" height="24" viewBox="0 0 24 24" fill="none" xmlns="http://www.w3.org/2000/svg">
<path d="M12.0051 12.0098C14.3957 12.0098 16.3444 9.8807 16.3444 7.28913C16.3444 4.7177 14.4159 2.6987 12.0051 2.6987C9.62443 2.6987 7.66586 4.75799 7.66586 7.30927C7.67572 9.89056 9.62443 12.0098 12.0051 12.0098ZM12.0051 10.4931C10.5386 10.4931 9.28286 9.08741 9.28286 7.30884C9.28286 5.56156 10.5184 4.21541 12.0051 4.21541C13.5116 4.21541 14.727 5.54141 14.727 7.28913C14.727 9.06684 13.4914 10.4931 12.0051 10.4931ZM5.697 21.3017H18.3133C19.9804 21.3017 20.7741 20.799 20.7741 19.6946C20.7741 17.0623 17.4591 13.2557 12.0051 13.2557C6.55072 13.2557 3.22586 17.0627 3.22586 19.6941C3.22586 20.799 4.01958 21.3017 5.697 21.3017ZM5.21486 19.7841C4.95343 19.7841 4.84329 19.7138 4.84329 19.503C4.84329 17.8556 7.39457 14.7716 12.0047 14.7716C16.6157 14.7716 19.1567 17.8556 19.1567 19.503C19.1567 19.7138 19.0564 19.7841 18.7954 19.7841H5.21486Z" fill="black"/>
</svg>
